<svg width="1512" height="800" viewBox="0 0 1512 800" fill="none" xmlns="http://www.w3.org/2000/svg">
<path fill-rule="evenodd" clip-rule="evenodd" d="M143.867 -89.4685H-7.46838V61.8376H128.189L143.867 46.1622V-89.4685ZM159.964 61.8376L144.487 46.3644V-89.4685H295.823V61.8376H159.964ZM144.487 77.7005L159.733 62.4578H295.823V213.764H144.487V77.7005ZM128.419 62.4578L143.867 77.9026V213.764H-7.46838V62.4578H128.419ZM-8 -90V61.9263V62.3691V213.852V214.295V365.778V366.221V517.705V518.147V669.631V670.074V822H143.956H144.399H295.911H296.354H447.867H448.31H599.823H600.266H751.778H752.221H903.734H904.177H1055.69H1056.13H1207.65H1208.09H1359.6H1360.04H1512L1512 670.074V518.147V517.705V365.778V214.295V62.3691V61.9263V-90H1360.04H1359.6H1208.09H1207.65H1056.13H1055.69H904.177H903.734H752.221H751.778H600.266H599.823H448.31H447.867H296.354H295.911H144.399H143.956H-8ZM296.443 -89.4685H447.778V61.8376H296.443V-89.4685ZM599.734 -89.4685H448.399V61.8376H599.734V-89.4685ZM600.354 -89.4685H751.69V61.8376H600.354V-89.4685ZM903.645 -89.4685H752.31V61.8376H903.645V-89.4685ZM904.266 -89.4685H1055.6V61.8376H904.266V-89.4685ZM1207.56 -89.4685H1056.22V61.8376H1207.56V-89.4685ZM1208.18 -89.4685H1359.51V61.8376H1208.18V-89.4685ZM1511.47 -89.4685H1360.13V61.8376H1511.47V-89.4685ZM296.443 62.4578H447.778V213.764H296.443V62.4578ZM599.734 62.4578H448.399V213.764H584.512L599.734 198.545V62.4578ZM615.333 213.764L600.354 198.788V62.4578H751.69V213.764H615.333ZM600.354 230.083L616.005 214.435L615.953 214.384H751.69V365.69H600.354V230.083ZM583.892 214.384L583.84 214.435L599.734 230.326V365.69H448.399V214.384H583.892ZM903.645 62.4578H752.31V213.764H903.645V62.4578ZM904.266 62.4578H1055.6V213.764H904.266V62.4578ZM1207.56 62.4578H1056.22V213.764H1207.56V62.4578ZM1208.18 62.4578H1359.51V171.787L1359.26 172.043L1317.53 213.764H1208.18V62.4578ZM1316.91 214.384H1208.18V350.783L1208.69 350.275L1224.1 365.69H1359.51V257.085L1359.26 256.828L1317.27 214.846L1316.86 214.435L1316.91 214.384ZM1359.51 256.264L1317.68 214.435L1317.73 214.384H1343.64L1343.58 214.435L1359.51 230.361V256.264ZM1360.13 256.772V365.69H1511.47V214.384H1402.43L1402.48 214.435L1402.07 214.846L1360.13 256.772ZM1401.6 214.384L1401.66 214.435L1360.13 255.951V230.048L1375.75 214.435L1375.7 214.384H1401.6ZM1401.81 213.764H1511.47V62.4578H1360.13V172.1L1401.81 213.764ZM1360.13 172.921L1400.98 213.764H1375.08L1360.13 198.823V172.921ZM1359.51 172.608L1318.35 213.764H1344.26L1359.51 198.51V172.608ZM1208.18 381.925L1208.69 382.434L1224.77 366.355L1224.72 366.31H1359.51V517.616H1208.18V381.925ZM1192.65 366.31L1192.6 366.355L1207.56 381.306V517.616H1056.22V366.31H1192.65ZM1207.56 351.404L1193.27 365.69H1056.22V214.384H1207.56V351.404ZM-7.46838 214.384H143.867V365.69H-7.46838V214.384ZM295.823 214.384H144.487V365.69H295.823V214.384ZM296.443 214.384H447.778V365.69H296.443V214.384ZM903.646 214.384H752.31V365.69H903.646V214.384ZM904.266 214.384H1055.6V365.69H904.266V214.384ZM-7.46838 366.31H143.867V517.616H-7.46838V366.31ZM295.823 366.31H144.487V517.616H254.008L253.811 517.419L254.222 517.009L295.823 475.416V366.31ZM295.823 476.237L254.632 517.419L254.829 517.616H280.737L280.54 517.419L295.823 502.139V476.237ZM296.443 501.519V475.617L296.622 475.438L338.612 517.419L338.415 517.616H312.508L312.705 517.419L296.622 501.34L296.443 501.519ZM296.443 533.319L296.622 533.498L311.887 518.236H337.795L296.622 559.401L296.443 559.221V533.319ZM281.357 518.236L295.823 532.699V558.602L255.45 518.236H281.357ZM254.628 518.236H144.487V669.542H295.823V559.423L254.628 518.236ZM296.443 560.042V669.542H447.778V518.236H338.616L297.033 559.811L296.622 560.222L296.443 560.042ZM339.236 517.616H447.778V366.31H296.443V474.796L296.622 474.617L297.033 475.027L339.022 517.009L339.433 517.419L339.236 517.616ZM599.734 366.31H448.399V517.616H599.734V366.31ZM600.354 366.31H751.69V517.616H600.354V366.31ZM903.645 366.31H752.31V517.616H903.645V366.31ZM904.266 366.31H1055.6V517.616H904.266V366.31ZM1511.47 366.31H1360.13V517.616H1511.47V366.31ZM-7.46838 518.236H143.867V669.542H-7.46838V518.236ZM599.734 518.236H448.399V669.542H599.734V518.236ZM600.354 518.236H751.69V669.542H600.354V518.236ZM903.645 518.236H752.31V669.542H903.645V518.236ZM904.266 518.236H1055.6V669.542H904.266V518.236ZM1207.56 518.236H1056.22V669.542H1207.56V518.236ZM1208.18 518.236H1359.51V669.542H1208.18V518.236ZM1511.47 518.236H1360.13V669.542H1511.47V518.236ZM-7.46838 670.162H143.867V821.468H-7.46838V670.162ZM295.823 670.162H144.487V821.468H295.823V670.162ZM296.443 670.162H447.778V821.468H296.443V670.162ZM599.734 670.162H448.399V821.468H599.734V670.162ZM600.354 670.162H751.69V821.468H600.354V670.162ZM903.645 670.162H752.31V821.468H903.645V670.162ZM904.266 670.162H1055.6V821.468H904.266V670.162ZM1207.56 670.162H1056.22V821.468H1207.56V670.162ZM1208.18 670.162H1359.51V821.468H1208.18V670.162ZM1511.47 670.162H1360.13V821.468H1511.47V670.162Z" fill="white"/>
</svg>
